<svg width="9" height="13" viewBox="0 0 9 13" fill="none" xmlns="http://www.w3.org/2000/svg">
<path d="M6.75781 0.570312V2.14062H6.52344C5.46094 2.15625 4.61198 2.44792 3.97656 3.01562C3.34115 3.58333 2.96354 4.38802 2.84375 5.42969C3.45312 4.78906 4.23177 4.46875 5.17969 4.46875C6.1849 4.46875 6.97656 4.82292 7.55469 5.53125C8.13802 6.23958 8.42969 7.15365 8.42969 8.27344C8.42969 9.42969 8.08854 10.3672 7.40625 11.0859C6.72917 11.7995 5.83854 12.1562 4.73438 12.1562C3.59896 12.1562 2.67708 11.737 1.96875 10.8984C1.26562 10.0599 0.914062 8.96094 0.914062 7.60156V6.95312C0.914062 4.95833 1.39844 3.39583 2.36719 2.26562C3.34115 1.13542 4.73958 0.570312 6.5625 0.570312H6.75781ZM4.71875 6C4.30208 6 3.91927 6.11719 3.57031 6.35156C3.22656 6.58594 2.97396 6.89844 2.8125 7.28906V7.86719C2.8125 8.71094 2.98958 9.38281 3.34375 9.88281C3.69792 10.3776 4.15625 10.625 4.71875 10.625C5.28125 10.625 5.72656 10.4141 6.05469 9.99219C6.38281 9.57031 6.54688 9.01562 6.54688 8.32812C6.54688 7.64062 6.38021 7.08073 6.04688 6.64844C5.71354 6.21615 5.27083 6 4.71875 6Z" fill="black"/>
</svg>
