<svg width="50" height="53" viewBox="0 0 50 53" fill="none" xmlns="http://www.w3.org/2000/svg">
<path d="M28.7376 53C36.3592 53 43.6688 50.0632 49.0581 44.8356C43.0934 27.2853 37.4282 18.9392 22.7239 7.01157L12.642 0.491821C12.3686 0.315122 12.0619 0.192471 11.7395 0.130886C11.4171 0.069301 11.0853 0.0699921 10.7632 0.13292C10.4411 0.195848 10.135 0.319777 9.86229 0.497614C9.58962 0.675451 9.35578 0.903703 9.17416 1.16931C3.08616 10.0703 0 18.1304 0 25.1249C0 32.5179 3.0277 39.608 8.41704 44.8356C13.8064 50.0632 21.1159 53 28.7376 53Z" fill="#E5E5E5"/>
</svg>
